<svg width="121" height="33" viewBox="0 0 121 33" fill="none" xmlns="http://www.w3.org/2000/svg">
<path d="M0.685625 33V0.599998H3.72563V33H0.685625ZM9.47281 33V0.599998H11.6728L21.9928 25.76V0.599998H24.6328V33H22.4728L12.1128 7.56V33H9.47281ZM35.9741 33L28.3741 0.599998H31.2941L37.4141 27.44L43.1741 0.599998H46.0541L38.7341 33H35.9741ZM49.7844 33V0.599998H61.5044V2.96H52.8644V15.12H59.9044V17.36H52.8644V30.72H61.5844V33H49.7844ZM64.0019 33L70.8419 0.599998H74.0419L80.9219 33H77.9219L76.3219 24.32H68.6019L66.9619 33H64.0019ZM69.0419 22.12H75.9219L72.4819 4.64L69.0419 22.12ZM84.8244 33V0.599998H92.1444C94.171 0.599998 95.7577 0.933331 96.9044 1.6C98.0777 2.24 98.9177 3.18667 99.4244 4.44C99.931 5.66666 100.184 7.13333 100.184 8.84C100.184 10.04 100.051 11.1733 99.7844 12.24C99.5177 13.3067 99.0644 14.2133 98.4244 14.96C97.7844 15.7067 96.8777 16.2 95.7044 16.44L100.664 33H97.7044L92.9444 17.08H87.8644V33H84.8244ZM87.8644 14.84H91.9844C93.3444 14.84 94.3977 14.6133 95.1444 14.16C95.891 13.7067 96.4244 13.04 96.7444 12.16C97.0644 11.28 97.2244 10.1733 97.2244 8.84C97.2244 6.84 96.8777 5.34667 96.1844 4.36C95.491 3.37333 94.1177 2.88 92.0644 2.88H87.8644V14.84ZM105.293 33V0.599998H107.493L117.813 25.76V0.599998H120.453V33H118.293L107.933 7.56V33H105.293Z" fill="white"/>
</svg>
