<svg width="185" height="185" viewBox="0 0 185 185" fill="none" xmlns="http://www.w3.org/2000/svg">
<rect x="0.5" y="0.5" width="184" height="184" rx="92" stroke="white"/>
<path d="M93 57.4333C99.5733 57.4333 104.9 62.76 104.9 69.3333C104.9 75.9067 99.5733 81.2333 93 81.2333C86.4267 81.2333 81.1 75.9067 81.1 69.3333C81.1 62.76 86.4267 57.4333 93 57.4333ZM93 108.433C109.83 108.433 127.567 116.707 127.567 120.333V126.567H58.4334V120.333C58.4334 116.707 76.17 108.433 93 108.433ZM93 46.6667C80.4767 46.6667 70.3334 56.81 70.3334 69.3333C70.3334 81.8567 80.4767 92 93 92C105.523 92 115.667 81.8567 115.667 69.3333C115.667 56.81 105.523 46.6667 93 46.6667ZM93 97.6666C77.87 97.6666 47.6667 105.26 47.6667 120.333V137.333H138.333V120.333C138.333 105.26 108.13 97.6666 93 97.6666Z" fill="white"/>
</svg>
